<?xml version="1.0" encoding="UTF-8" standalone="no"?>
<svg
   viewBox="0 0 100 100"
   version="1.1"
   id="svg44"
   sodipodi:docname="favicon.svg"
   inkscape:version="1.2.2 (b0a8486541, 2022-12-01)"
   xmlns:inkscape="http://www.inkscape.org/namespaces/inkscape"
   xmlns:sodipodi="http://sodipodi.sourceforge.net/DTD/sodipodi-0.dtd"
   xmlns:xlink="http://www.w3.org/1999/xlink"
   xmlns="http://www.w3.org/2000/svg"
   xmlns:svg="http://www.w3.org/2000/svg">
  <defs
     id="defs48">
    <linearGradient
       inkscape:collect="always"
       id="linearGradient3251">
      <stop
         style="stop-color:#7877c6;stop-opacity:1;"
         offset="0"
         id="stop3247" />
      <stop
         style="stop-color:#77dbff;stop-opacity:1;"
         offset="1"
         id="stop3249" />
    </linearGradient>
    <linearGradient
       inkscape:collect="always"
       id="linearGradient1020">
      <stop
         style="stop-color:#7877c6;stop-opacity:1;"
         offset="0"
         id="stop1016" />
      <stop
         style="stop-color:#ff77c6;stop-opacity:1;"
         offset="1"
         id="stop1018" />
    </linearGradient>
    <linearGradient
       inkscape:collect="always"
       xlink:href="#linearGradient3251"
       id="linearGradient2518"
       gradientUnits="userSpaceOnUse"
       x1="15.46715"
       y1="35.105156"
       x2="46.797138"
       y2="71.147415"
       gradientTransform="translate(39,-2)" />
    <linearGradient
       inkscape:collect="always"
       xlink:href="#linearGradient1020"
       id="linearGradient3255"
       gradientUnits="userSpaceOnUse"
       x1="15.46715"
       y1="35.105156"
       x2="46.797138"
       y2="71.147415" />
  </defs>
  <sodipodi:namedview
     id="namedview46"
     pagecolor="#505050"
     bordercolor="#eeeeee"
     borderopacity="1"
     inkscape:showpageshadow="0"
     inkscape:pageopacity="0"
     inkscape:pagecheckerboard="0"
     inkscape:deskcolor="#505050"
     showgrid="false"
     inkscape:zoom="7.82"
     inkscape:cx="23.59335"
     inkscape:cy="51.534527"
     inkscape:window-width="1920"
     inkscape:window-height="1008"
     inkscape:window-x="0"
     inkscape:window-y="0"
     inkscape:window-maximized="1"
     inkscape:current-layer="svg44" />
  <text
     y="0.89999998em"
     font-size="90px"
     id="text42" />
  <path
     style="mix-blend-mode:normal;fill:url(#linearGradient3255);fill-opacity:1;stroke-width:2.07707;fill-rule:nonzero"
     d="m 48.02533,12.086555 c 1.832143,4.546773 -0.03331,14.251108 -5,15 -12.395471,1.869024 -8.055569,10.392272 -7,22 1.153321,12.682661 5.306721,36.479126 -6,40 -13.998592,4.359113 -20.4854767,-3.832582 -20,-10 1.069542,-13.587302 17.974813,-8.396047 14,-30 -2.71332,-14.747474 -11.083715,-38.707854 24,-37 z"
     id="path468"
     sodipodi:nodetypes="csssssc" />
  <path
     style="mix-blend-mode:normal;fill:url(#linearGradient2518);fill-opacity:1.0;fill-rule:nonzero;stroke-width:2.07707"
     d="m 87.02533,10.086555 c 1.832143,4.546773 -0.03331,14.251108 -5,15 -12.395471,1.869024 -8.055569,10.392272 -7,22 1.153321,12.682661 5.306721,36.479126 -6,40 -13.998592,4.359113 -20.485477,-3.832582 -20,-10 1.069542,-13.587302 17.974813,-8.396047 14,-30 -2.71332,-14.747474 -11.083715,-38.707854 24,-37 z"
     id="path468-5"
     sodipodi:nodetypes="csssssc" />
</svg>
